<mxfile host="app.diagrams.net" agent="Mozilla/5.0 (Windows NT 10.0; Win64; x64) AppleWebKit/537.36 (KHTML, like Gecko) Chrome/130.0.0.0 Safari/537.36 Edg/130.0.0.0" version="24.8.1">
  <diagram name="1 oldal" id="IpOGdkp6DI1w-2OEIYW_">
    <mxGraphModel dx="2338" dy="1347" grid="1" gridSize="10" guides="1" tooltips="1" connect="1" arrows="1" fold="1" page="1" pageScale="1" pageWidth="827" pageHeight="1169" math="0" shadow="0">
      <root>
        <mxCell id="0" />
        <mxCell id="1" parent="0" />
        <mxCell id="Z6FbQKNojgm3ZAxjpms_-3" value="" style="edgeStyle=orthogonalEdgeStyle;rounded=0;orthogonalLoop=1;jettySize=auto;html=1;" edge="1" parent="1" source="Z6FbQKNojgm3ZAxjpms_-1" target="Z6FbQKNojgm3ZAxjpms_-2">
          <mxGeometry relative="1" as="geometry" />
        </mxCell>
        <mxCell id="Z6FbQKNojgm3ZAxjpms_-1" value="START" style="ellipse;whiteSpace=wrap;html=1;" vertex="1" parent="1">
          <mxGeometry x="330" y="20" width="120" height="80" as="geometry" />
        </mxCell>
        <mxCell id="Z6FbQKNojgm3ZAxjpms_-5" value="" style="edgeStyle=orthogonalEdgeStyle;rounded=0;orthogonalLoop=1;jettySize=auto;html=1;" edge="1" parent="1" source="Z6FbQKNojgm3ZAxjpms_-2" target="Z6FbQKNojgm3ZAxjpms_-4">
          <mxGeometry relative="1" as="geometry" />
        </mxCell>
        <mxCell id="Z6FbQKNojgm3ZAxjpms_-2" value="Megtervezzük mit akarunk" style="whiteSpace=wrap;html=1;" vertex="1" parent="1">
          <mxGeometry x="330" y="190" width="120" height="60" as="geometry" />
        </mxCell>
        <mxCell id="Z6FbQKNojgm3ZAxjpms_-9" style="edgeStyle=orthogonalEdgeStyle;rounded=0;orthogonalLoop=1;jettySize=auto;html=1;exitX=0.5;exitY=1;exitDx=0;exitDy=0;entryX=0.5;entryY=0;entryDx=0;entryDy=0;" edge="1" parent="1" source="Z6FbQKNojgm3ZAxjpms_-4" target="Z6FbQKNojgm3ZAxjpms_-6">
          <mxGeometry relative="1" as="geometry" />
        </mxCell>
        <mxCell id="Z6FbQKNojgm3ZAxjpms_-11" style="edgeStyle=orthogonalEdgeStyle;rounded=0;orthogonalLoop=1;jettySize=auto;html=1;exitX=0.5;exitY=1;exitDx=0;exitDy=0;entryX=0.5;entryY=0;entryDx=0;entryDy=0;" edge="1" parent="1" source="Z6FbQKNojgm3ZAxjpms_-4" target="Z6FbQKNojgm3ZAxjpms_-7">
          <mxGeometry relative="1" as="geometry" />
        </mxCell>
        <mxCell id="Z6FbQKNojgm3ZAxjpms_-12" style="edgeStyle=orthogonalEdgeStyle;rounded=0;orthogonalLoop=1;jettySize=auto;html=1;exitX=0.5;exitY=1;exitDx=0;exitDy=0;entryX=0.5;entryY=0;entryDx=0;entryDy=0;" edge="1" parent="1" source="Z6FbQKNojgm3ZAxjpms_-4" target="Z6FbQKNojgm3ZAxjpms_-8">
          <mxGeometry relative="1" as="geometry" />
        </mxCell>
        <mxCell id="Z6FbQKNojgm3ZAxjpms_-4" value="&#xa;&lt;span style=&quot;color: rgb(0, 0, 0); font-family: Helvetica; font-size: 12px; font-style: normal; font-variant-ligatures: normal; font-variant-caps: normal; font-weight: 400; letter-spacing: normal; orphans: 2; text-align: center; text-indent: 0px; text-transform: none; widows: 2; word-spacing: 0px; -webkit-text-stroke-width: 0px; white-space: normal; background-color: rgb(251, 251, 251); text-decoration-thickness: initial; text-decoration-style: initial; text-decoration-color: initial; display: inline !important; float: none;&quot;&gt;Legkomolyabb feladat&lt;/span&gt;&lt;br style=&quot;forced-color-adjust: none; color: rgb(0, 0, 0); font-family: Helvetica; font-size: 12px; font-style: normal; font-variant-ligatures: normal; font-variant-caps: normal; font-weight: 400; letter-spacing: normal; orphans: 2; text-align: center; text-indent: 0px; text-transform: none; widows: 2; word-spacing: 0px; -webkit-text-stroke-width: 0px; white-space: normal; background-color: rgb(251, 251, 251); text-decoration-thickness: initial; text-decoration-style: initial; text-decoration-color: initial;&quot;&gt;&lt;span style=&quot;color: rgb(0, 0, 0); font-family: Helvetica; font-size: 12px; font-style: normal; font-variant-ligatures: normal; font-variant-caps: normal; font-weight: 400; letter-spacing: normal; orphans: 2; text-align: center; text-indent: 0px; text-transform: none; widows: 2; word-spacing: 0px; -webkit-text-stroke-width: 0px; white-space: normal; background-color: rgb(251, 251, 251); text-decoration-thickness: initial; text-decoration-style: initial; text-decoration-color: initial; display: inline !important; float: none;&quot;&gt;szétosztás a tagok&amp;nbsp;&lt;/span&gt;&lt;br style=&quot;forced-color-adjust: none; color: rgb(0, 0, 0); font-family: Helvetica; font-size: 12px; font-style: normal; font-variant-ligatures: normal; font-variant-caps: normal; font-weight: 400; letter-spacing: normal; orphans: 2; text-align: center; text-indent: 0px; text-transform: none; widows: 2; word-spacing: 0px; -webkit-text-stroke-width: 0px; white-space: normal; background-color: rgb(251, 251, 251); text-decoration-thickness: initial; text-decoration-style: initial; text-decoration-color: initial;&quot;&gt;&lt;span style=&quot;color: rgb(0, 0, 0); font-family: Helvetica; font-size: 12px; font-style: normal; font-variant-ligatures: normal; font-variant-caps: normal; font-weight: 400; letter-spacing: normal; orphans: 2; text-align: center; text-indent: 0px; text-transform: none; widows: 2; word-spacing: 0px; -webkit-text-stroke-width: 0px; white-space: normal; background-color: rgb(251, 251, 251); text-decoration-thickness: initial; text-decoration-style: initial; text-decoration-color: initial; display: inline !important; float: none;&quot;&gt;között&lt;/span&gt;&#xa;&#xa;" style="whiteSpace=wrap;html=1;" vertex="1" parent="1">
          <mxGeometry x="330" y="330" width="120" height="60" as="geometry" />
        </mxCell>
        <mxCell id="Z6FbQKNojgm3ZAxjpms_-14" style="edgeStyle=orthogonalEdgeStyle;rounded=0;orthogonalLoop=1;jettySize=auto;html=1;exitX=0.5;exitY=1;exitDx=0;exitDy=0;entryX=0.5;entryY=0;entryDx=0;entryDy=0;" edge="1" parent="1" source="Z6FbQKNojgm3ZAxjpms_-6" target="Z6FbQKNojgm3ZAxjpms_-13">
          <mxGeometry relative="1" as="geometry" />
        </mxCell>
        <mxCell id="Z6FbQKNojgm3ZAxjpms_-6" value="Patrik Dolgozik" style="rounded=0;whiteSpace=wrap;html=1;" vertex="1" parent="1">
          <mxGeometry x="120" y="440" width="120" height="60" as="geometry" />
        </mxCell>
        <mxCell id="Z6FbQKNojgm3ZAxjpms_-16" style="edgeStyle=orthogonalEdgeStyle;rounded=0;orthogonalLoop=1;jettySize=auto;html=1;exitX=0.5;exitY=1;exitDx=0;exitDy=0;entryX=0.5;entryY=0;entryDx=0;entryDy=0;" edge="1" parent="1" source="Z6FbQKNojgm3ZAxjpms_-7" target="Z6FbQKNojgm3ZAxjpms_-13">
          <mxGeometry relative="1" as="geometry" />
        </mxCell>
        <mxCell id="Z6FbQKNojgm3ZAxjpms_-7" value="Béla a gombgyárban dolgozik" style="rounded=0;whiteSpace=wrap;html=1;" vertex="1" parent="1">
          <mxGeometry x="330" y="440" width="120" height="60" as="geometry" />
        </mxCell>
        <mxCell id="Z6FbQKNojgm3ZAxjpms_-17" style="edgeStyle=orthogonalEdgeStyle;rounded=0;orthogonalLoop=1;jettySize=auto;html=1;exitX=0.5;exitY=1;exitDx=0;exitDy=0;entryX=0.5;entryY=0;entryDx=0;entryDy=0;" edge="1" parent="1" source="Z6FbQKNojgm3ZAxjpms_-8" target="Z6FbQKNojgm3ZAxjpms_-13">
          <mxGeometry relative="1" as="geometry" />
        </mxCell>
        <mxCell id="Z6FbQKNojgm3ZAxjpms_-8" value="Ricsi dolgozik" style="rounded=0;whiteSpace=wrap;html=1;" vertex="1" parent="1">
          <mxGeometry x="530" y="440" width="120" height="60" as="geometry" />
        </mxCell>
        <mxCell id="Z6FbQKNojgm3ZAxjpms_-19" style="edgeStyle=orthogonalEdgeStyle;rounded=0;orthogonalLoop=1;jettySize=auto;html=1;exitX=0.5;exitY=1;exitDx=0;exitDy=0;entryX=0.5;entryY=0;entryDx=0;entryDy=0;" edge="1" parent="1" source="Z6FbQKNojgm3ZAxjpms_-13" target="Z6FbQKNojgm3ZAxjpms_-18">
          <mxGeometry relative="1" as="geometry" />
        </mxCell>
        <mxCell id="Z6FbQKNojgm3ZAxjpms_-13" value="Ha nem romlik el nagyon, git push - commit" style="rounded=0;whiteSpace=wrap;html=1;" vertex="1" parent="1">
          <mxGeometry x="330" y="585" width="120" height="60" as="geometry" />
        </mxCell>
        <mxCell id="Z6FbQKNojgm3ZAxjpms_-31" style="edgeStyle=orthogonalEdgeStyle;rounded=0;orthogonalLoop=1;jettySize=auto;html=1;exitX=1;exitY=0.5;exitDx=0;exitDy=0;entryX=0;entryY=0.5;entryDx=0;entryDy=0;" edge="1" parent="1" source="Z6FbQKNojgm3ZAxjpms_-18" target="Z6FbQKNojgm3ZAxjpms_-30">
          <mxGeometry relative="1" as="geometry" />
        </mxCell>
        <mxCell id="Z6FbQKNojgm3ZAxjpms_-32" value="Beadandó elfogadva,&lt;br&gt;&amp;nbsp;jegy megajánlva" style="edgeLabel;html=1;align=center;verticalAlign=middle;resizable=0;points=[];" vertex="1" connectable="0" parent="Z6FbQKNojgm3ZAxjpms_-31">
          <mxGeometry x="-0.2419" y="-1" relative="1" as="geometry">
            <mxPoint x="9" y="-21" as="offset" />
          </mxGeometry>
        </mxCell>
        <mxCell id="Z6FbQKNojgm3ZAxjpms_-18" value="Legkomolyabb csapatmunka elkészül" style="rhombus;whiteSpace=wrap;html=1;" vertex="1" parent="1">
          <mxGeometry x="315" y="720" width="150" height="150" as="geometry" />
        </mxCell>
        <mxCell id="Z6FbQKNojgm3ZAxjpms_-21" value="" style="endArrow=classic;html=1;rounded=0;entryX=0;entryY=0.5;entryDx=0;entryDy=0;" edge="1" parent="1" target="Z6FbQKNojgm3ZAxjpms_-4">
          <mxGeometry width="50" height="50" relative="1" as="geometry">
            <mxPoint x="40" y="360" as="sourcePoint" />
            <mxPoint x="90" y="350" as="targetPoint" />
          </mxGeometry>
        </mxCell>
        <mxCell id="Z6FbQKNojgm3ZAxjpms_-22" value="" style="endArrow=none;html=1;rounded=0;entryX=0;entryY=0.5;entryDx=0;entryDy=0;" edge="1" parent="1" target="Z6FbQKNojgm3ZAxjpms_-18">
          <mxGeometry width="50" height="50" relative="1" as="geometry">
            <mxPoint x="40" y="795" as="sourcePoint" />
            <mxPoint x="440" y="660" as="targetPoint" />
          </mxGeometry>
        </mxCell>
        <mxCell id="Z6FbQKNojgm3ZAxjpms_-23" value="" style="endArrow=none;html=1;rounded=0;" edge="1" parent="1">
          <mxGeometry width="50" height="50" relative="1" as="geometry">
            <mxPoint x="40" y="790" as="sourcePoint" />
            <mxPoint x="40" y="360" as="targetPoint" />
          </mxGeometry>
        </mxCell>
        <mxCell id="Z6FbQKNojgm3ZAxjpms_-25" value="Megajánlott jegy: elégtelen (1) -&amp;gt; újra neki kell látni" style="text;html=1;align=center;verticalAlign=middle;whiteSpace=wrap;rounded=0;" vertex="1" parent="1">
          <mxGeometry x="120" y="760" width="130" height="30" as="geometry" />
        </mxCell>
        <mxCell id="Z6FbQKNojgm3ZAxjpms_-27" value="STOP" style="ellipse;whiteSpace=wrap;html=1;" vertex="1" parent="1">
          <mxGeometry x="900" y="755" width="120" height="80" as="geometry" />
        </mxCell>
        <mxCell id="Z6FbQKNojgm3ZAxjpms_-33" style="edgeStyle=orthogonalEdgeStyle;rounded=0;orthogonalLoop=1;jettySize=auto;html=1;exitX=1;exitY=0.5;exitDx=0;exitDy=0;entryX=0;entryY=0.5;entryDx=0;entryDy=0;" edge="1" parent="1" source="Z6FbQKNojgm3ZAxjpms_-30" target="Z6FbQKNojgm3ZAxjpms_-27">
          <mxGeometry relative="1" as="geometry" />
        </mxCell>
        <mxCell id="Z6FbQKNojgm3ZAxjpms_-30" value="Töménytelen mennyiségű alkohol elfogyasztása" style="rounded=0;whiteSpace=wrap;html=1;" vertex="1" parent="1">
          <mxGeometry x="640" y="765" width="120" height="60" as="geometry" />
        </mxCell>
      </root>
    </mxGraphModel>
  </diagram>
</mxfile>
